<svg width="32" height="32" viewBox="0 0 96 96" fill="none" xmlns="http://www.w3.org/2000/svg">
  <!-- FlyClash 图标 - 从 Android Vector Drawable 转换 -->
  <path d="M41.877,16.035H61.3c1.871,0.055 3.67,0.056 5.479,0a25.9,25.9 0,0 1,2.74 0c2.289,0.173 6.9,1 9.962,3.955 5.382,5.18 2.989,14.236 2.989,28.53 0,5.915 0.914,14.522 -1,18.643 -1.845,3.981 -7.494,5.9 -11.207,4.237 -4.159,-1.868 -4.254,-7.855 -8.467,-10.734 -1.341,-0.916 -4.75,-1.846 -8.965,-1.412 -5.681,0.584 -11.139,3.3 -13.448,4.52A66.079,66.079 0,0 1,23.7 69.987,47.3 47.3,0 0,1 10,71.117a91.679,91.679 0,0 0,17.288 -9.67c7.456,-5.3 10.384,-10.31 11.352,-13.492 3.005,-9.88 -11.477,-15.556 -11.173,-23.3a9.114,9.114 0,0 1,2.457 -5.225,9.052 9.052,0 0,1 2.989,-2.26L34.9,16.6c0.4,-0.086 0.794,-0.16 1.2,-0.228A27.155,27.155 0,0 1,41.877 16.035Z" fill="black" fill-rule="evenodd"/>
</svg>

